<?xml version="1.0" encoding="UTF-8"?>
<svg width="128px" height="25px" viewBox="0 0 128 25" version="1.1" xmlns="http://www.w3.org/2000/svg" xmlns:xlink="http://www.w3.org/1999/xlink">
    <!-- Generator: Sketch 51.1 (57501) - http://www.bohemiancoding.com/sketch -->
    <title>logo_workmark</title>
    <desc>Created with Sketch.</desc>
    <defs></defs>
    <g id="Index" stroke="none" stroke-width="1" fill="none" fill-rule="evenodd">
        <g id="logo_workmark" fill="#FFFFFF" fill-rule="nonzero">
            <path d="M30.6407186,13.1811224 L30.6407186,10.8622449 L27.1584032,10.8622449 L27.1584032,24.3469388 L30.6407186,24.3469388 L30.6407186,17.8979592 C30.6407186,15.0688776 32.9401198,14.2602041 34.7438723,14.4744898 L34.7438723,10.5943878 C33.0448703,10.5943878 31.3433134,11.3367347 30.6407186,13.1811224 Z" id="Shape"></path>
            <path d="M42.7892216,10.4846939 C38.5506587,10.4846939 35.6636327,13.5841837 35.6636327,17.5994898 C35.6636327,21.6147959 38.5251098,24.7142857 43.0600399,24.7142857 C45.6506986,24.7142857 47.6767265,23.6632653 48.9362874,21.8316327 L46.1259082,20.2142857 C45.5331737,20.994898 44.4524551,21.5612245 43.1034731,21.5612245 C41.2690619,21.5612245 39.7821158,20.7959184 39.2966866,19.0280612 L49.4830339,19.0280612 C49.5708283,18.556867 49.616146,18.0787635 49.6184431,17.5994898 C49.6184431,13.6326531 46.782515,10.4846939 42.7892216,10.4846939 Z M39.2634731,16.3341837 C39.6671457,14.6096939 40.9369261,13.6122449 42.7994411,13.6122449 C44.2582834,13.6122449 45.7145709,14.3928571 46.1463473,16.3341837 L39.2634731,16.3341837 Z" id="Shape"></path>
            <path d="M54.8278643,14.6913265 C54.8278643,13.9642857 55.5304591,13.5867347 56.394012,13.5867347 C57.327482,13.5613261 58.1824301,14.1058457 58.5528942,14.9617347 L61.5216766,13.3443878 C60.4690619,11.4821429 58.5784431,10.4846939 56.3812375,10.4846939 C53.601517,10.4846939 51.2535729,12.0153061 51.2535729,14.7704082 C51.2535729,19.5127551 58.2182036,18.4362245 58.2182036,20.4030612 C58.2182036,21.1836735 57.4517365,21.5612245 56.3556886,21.5612245 C55.0067066,21.5612245 54.089501,20.9132653 53.7113772,19.8086735 L50.6889421,21.5076531 C51.6598004,23.5841837 53.6577246,24.7142857 56.3582435,24.7142857 C59.2452695,24.7142857 61.7848303,23.3137755 61.7848303,20.4030612 C61.792495,15.4438776 54.8278643,16.6938776 54.8278643,14.6913265 Z" id="Shape"></path>
            <path d="M70.3769261,10.4846939 C66.1383633,10.4846939 63.2513373,13.5841837 63.2513373,17.5994898 C63.2513373,21.6147959 66.1128144,24.7142857 70.6477445,24.7142857 C73.2384032,24.7142857 75.2644311,23.6632653 76.523992,21.8316327 L73.7136128,20.2142857 C73.1208782,20.994898 72.0401597,21.5612245 70.6911776,21.5612245 C68.8567665,21.5612245 67.3698204,20.7959184 66.8843912,19.0280612 L77.0758483,19.0280612 C77.1635207,18.5568499 77.2088374,18.0787574 77.2112575,17.5994898 C77.2061477,13.6326531 74.3702196,10.4846939 70.3769261,10.4846939 Z M66.8409581,16.3341837 C67.2446307,14.6096939 68.5144112,13.6122449 70.3769261,13.6122449 C71.8357685,13.6122449 73.2920559,14.3928571 73.7238323,16.3341837 L66.8409581,16.3341837 Z" id="Shape"></path>
            <path d="M84.0072655,19.8112245 L84.0072655,14.1989796 L87.0578044,14.1989796 L87.0578044,10.8622449 L84.0072655,10.8622449 L84.0072655,7.08928571 L80.5249501,8.14030612 L80.5249501,10.8622449 L78.177006,10.8622449 L78.177006,14.2040816 L80.5249501,14.2040816 L80.5249501,19.8163265 C80.5249501,21.7831633 81.0078244,23.1045918 82.2239521,23.8188776 L84.9193613,21.122449 C84.3189621,20.9668367 84.0072655,20.5994898 84.0072655,19.8112245 Z" id="Shape"></path>
            <path d="M95.6422355,10.4846939 L95.5706986,10.4846939 L88.5192016,17.5255102 C88.5192016,17.5484694 88.5192016,17.5739796 88.5192016,17.5969388 C88.5192016,21.6122449 91.3806786,24.7117347 95.9156088,24.7117347 C98.5062675,24.7117347 100.532295,23.6607143 101.791856,21.8290816 L98.981477,20.2117347 C98.3887425,20.9923469 97.308024,21.5586735 95.9590419,21.5586735 C94.1246307,21.5586735 92.6376846,20.7933673 92.1522555,19.0255102 L102.328383,19.0255102 C102.416178,18.554316 102.461495,18.0762125 102.463792,17.5969388 C102.471457,13.6326531 99.6355289,10.4846939 95.6422355,10.4846939 Z M92.1062675,16.3341837 C92.5099401,14.6096939 93.7797206,13.6122449 95.6422355,13.6122449 C97.1010778,13.6122449 98.5573653,14.3928571 98.9891417,16.3341837 L92.1062675,16.3341837 Z" id="Shape"></path>
            <path d="M108.500998,13.1811224 L108.500998,10.8622449 L105.008463,10.8622449 L105.008463,24.3469388 L108.500998,24.3469388 L108.500998,17.8979592 C108.500998,15.0688776 110.800399,14.2602041 112.604152,14.4744898 L112.604152,10.5943878 C110.892375,10.5943878 109.193373,11.3367347 108.500998,13.1811224 Z" id="Shape"></path>
            <path d="M124.471617,10.8622449 L124.471617,12.4515306 C123.500758,11.2397959 122.041916,10.4846939 120.072096,10.4846939 C116.482475,10.4846939 113.513693,13.5841837 113.513693,17.5994898 C113.513693,21.6147959 116.482475,24.7142857 120.072096,24.7142857 C122.041916,24.7142857 123.500758,23.9489796 124.471617,22.747449 L124.471617,24.3469388 L127.953932,24.3469388 L127.953932,10.8622449 L124.471617,10.8622449 Z M120.718483,21.4005102 C118.58515,21.4005102 116.993453,19.869898 116.993453,17.5994898 C116.993453,15.3290816 118.58515,13.7984694 120.718483,13.7984694 C122.851816,13.7984694 124.471617,15.3290816 124.471617,17.5994898 C124.471617,19.869898 122.877365,21.4005102 120.718483,21.4005102 Z" id="Shape"></path>
            <polygon id="Logo" points="4.0461603 0 0 0 0 4.0461603 0 24 10.4892992 24 15.2228284 19.2664708 15.1850608 19.2312211 10.4892992 14.5354595 10.4892992 19.2312211 4.76877885 19.2312211 4.76877885 10.4892992 4.76877885 8.81493915 4.76877885 4.76877885 8.81493915 4.76877885 10.4892992 4.76877885 19.2312211 4.76877885 19.2312211 10.4892992 14.5354595 10.4892992 19.2312211 15.1850608 19.2664708 15.2228284 24 10.4892992 24 0"></polygon>
        </g>
    </g>
</svg>