<?xml version="1.0" encoding="UTF-8"?>
<svg width="128px" height="25px" viewBox="0 0 128 25" version="1.1" xmlns="http://www.w3.org/2000/svg" xmlns:xlink="http://www.w3.org/1999/xlink">
    <!-- Generator: Sketch 51.1 (57501) - http://www.bohemiancoding.com/sketch -->
    <title>logo_workmark</title>
    <desc>Created with Sketch.</desc>
    <defs></defs>
    <g id="Index" stroke="none" stroke-width="1" fill="none" fill-rule="evenodd">
        <g id="logo_workmark" fill-rule="nonzero">
            <g id="Wordmark" transform="translate(27.000000, 7.000000)">
                <path d="M3.64071856,6.18112245 L3.64071856,3.8622449 L0.158403194,3.8622449 L0.158403194,17.3469388 L3.64071856,17.3469388 L3.64071856,10.8979592 C3.64071856,8.06887755 5.94011976,7.26020408 7.74387226,7.4744898 L7.74387226,3.59438776 C6.04487026,3.59438776 4.34331337,4.33673469 3.64071856,6.18112245 Z" id="Shape" fill="#9E9FA2"></path>
                <path d="M15.7892216,3.48469388 C11.5506587,3.48469388 8.66363273,6.58418367 8.66363273,10.5994898 C8.66363273,14.6147959 11.5251098,17.7142857 16.0600399,17.7142857 C18.6506986,17.7142857 20.6767265,16.6632653 21.9362874,14.8316327 L19.1259082,13.2142857 C18.5331737,13.994898 17.4524551,14.5612245 16.1034731,14.5612245 C14.2690619,14.5612245 12.7821158,13.7959184 12.2966866,12.0280612 L22.4830339,12.0280612 C22.5708283,11.556867 22.616146,11.0787635 22.6184431,10.5994898 C22.6184431,6.63265306 19.782515,3.48469388 15.7892216,3.48469388 Z M12.2634731,9.33418367 C12.6671457,7.60969388 13.9369261,6.6122449 15.7994411,6.6122449 C17.2582834,6.6122449 18.7145709,7.39285714 19.1463473,9.33418367 L12.2634731,9.33418367 Z" id="Shape" fill="#9E9FA2"></path>
                <path d="M27.8278643,7.69132653 C27.8278643,6.96428571 28.5304591,6.58673469 29.394012,6.58673469 C30.327482,6.56132613 31.1824301,7.10584569 31.5528942,7.96173469 L34.5216766,6.34438776 C33.4690619,4.48214286 31.5784431,3.48469388 29.3812375,3.48469388 C26.601517,3.48469388 24.2535729,5.01530612 24.2535729,7.77040816 C24.2535729,12.5127551 31.2182036,11.4362245 31.2182036,13.4030612 C31.2182036,14.1836735 30.4517365,14.5612245 29.3556886,14.5612245 C28.0067066,14.5612245 27.089501,13.9132653 26.7113772,12.8086735 L23.6889421,14.5076531 C24.6598004,16.5841837 26.6577246,17.7142857 29.3582435,17.7142857 C32.2452695,17.7142857 34.7848303,16.3137755 34.7848303,13.4030612 C34.792495,8.44387755 27.8278643,9.69387755 27.8278643,7.69132653 Z" id="Shape" fill="#9E9FA2"></path>
                <path d="M43.3769261,3.48469388 C39.1383633,3.48469388 36.2513373,6.58418367 36.2513373,10.5994898 C36.2513373,14.6147959 39.1128144,17.7142857 43.6477445,17.7142857 C46.2384032,17.7142857 48.2644311,16.6632653 49.523992,14.8316327 L46.7136128,13.2142857 C46.1208782,13.994898 45.0401597,14.5612245 43.6911776,14.5612245 C41.8567665,14.5612245 40.3698204,13.7959184 39.8843912,12.0280612 L50.0758483,12.0280612 C50.1635207,11.5568499 50.2088374,11.0787574 50.2112575,10.5994898 C50.2061477,6.63265306 47.3702196,3.48469388 43.3769261,3.48469388 Z M39.8409581,9.33418367 C40.2446307,7.60969388 41.5144112,6.6122449 43.3769261,6.6122449 C44.8357685,6.6122449 46.2920559,7.39285714 46.7238323,9.33418367 L39.8409581,9.33418367 Z" id="Shape" fill="#9E9FA2"></path>
                <path d="M57.0072655,12.8112245 L57.0072655,7.19897959 L60.0578044,7.19897959 L60.0578044,3.8622449 L57.0072655,3.8622449 L57.0072655,0.0892857143 L53.5249501,1.14030612 L53.5249501,3.8622449 L51.177006,3.8622449 L51.177006,7.20408163 L53.5249501,7.20408163 L53.5249501,12.8163265 C53.5249501,14.7831633 54.0078244,16.1045918 55.2239521,16.8188776 L57.9193613,14.122449 C57.3189621,13.9668367 57.0072655,13.5994898 57.0072655,12.8112245 Z" id="Shape" fill="#9E9FA2"></path>
                <path d="M68.6422355,3.48469388 L68.5706986,3.48469388 L61.5192016,10.5255102 C61.5192016,10.5484694 61.5192016,10.5739796 61.5192016,10.5969388 C61.5192016,14.6122449 64.3806786,17.7117347 68.9156088,17.7117347 C71.5062675,17.7117347 73.5322954,16.6607143 74.7918563,14.8290816 L71.981477,13.2117347 C71.3887425,13.9923469 70.308024,14.5586735 68.9590419,14.5586735 C67.1246307,14.5586735 65.6376846,13.7933673 65.1522555,12.0255102 L75.3283832,12.0255102 C75.4161776,11.554316 75.4614953,11.0762125 75.4637924,10.5969388 C75.4714571,6.63265306 72.6355289,3.48469388 68.6422355,3.48469388 Z M65.1062675,9.33418367 C65.5099401,7.60969388 66.7797206,6.6122449 68.6422355,6.6122449 C70.1010778,6.6122449 71.5573653,7.39285714 71.9891417,9.33418367 L65.1062675,9.33418367 Z" id="Shape" fill="#8050BF"></path>
                <path d="M81.500998,6.18112245 L81.500998,3.8622449 L78.0084631,3.8622449 L78.0084631,17.3469388 L81.500998,17.3469388 L81.500998,10.8979592 C81.500998,8.06887755 83.8003992,7.26020408 85.6041517,7.4744898 L85.6041517,3.59438776 C83.8923752,3.59438776 82.1933733,4.33673469 81.500998,6.18112245 Z" id="Shape" fill="#8050BF"></path>
                <path d="M97.4716168,3.8622449 L97.4716168,5.45153061 C96.5007585,4.23979592 95.0419162,3.48469388 93.0720958,3.48469388 C89.482475,3.48469388 86.5136926,6.58418367 86.5136926,10.5994898 C86.5136926,14.6147959 89.482475,17.7142857 93.0720958,17.7142857 C95.0419162,17.7142857 96.5007585,16.9489796 97.4716168,15.747449 L97.4716168,17.3469388 L100.953932,17.3469388 L100.953932,3.8622449 L97.4716168,3.8622449 Z M93.718483,14.4005102 C91.5851497,14.4005102 89.9934531,12.869898 89.9934531,10.5994898 C89.9934531,8.32908163 91.5851497,6.79846939 93.718483,6.79846939 C95.8518164,6.79846939 97.4716168,8.32908163 97.4716168,10.5994898 C97.4716168,12.869898 95.8773653,14.4005102 93.718483,14.4005102 Z" id="Shape" fill="#8050BF"></path>
            </g>
            <polygon id="Logo" fill="#8050BF" points="4.0461603 0 0 0 0 4.0461603 0 24 10.4892992 24 15.2228284 19.2664708 15.1850608 19.2312211 10.4892992 14.5354595 10.4892992 19.2312211 4.76877885 19.2312211 4.76877885 10.4892992 4.76877885 8.81493915 4.76877885 4.76877885 8.81493915 4.76877885 10.4892992 4.76877885 19.2312211 4.76877885 19.2312211 10.4892992 14.5354595 10.4892992 19.2312211 15.1850608 19.2664708 15.2228284 24 10.4892992 24 0"></polygon>
        </g>
    </g>
</svg>